<svg xmlns="http://www.w3.org/2000/svg" version="1.1" xmlns:xlink="http://www.w3.org/1999/xlink" xmlns:svgjs="http://svgjs.dev/svgjs" width="2000" height="1252" viewBox="0 0 2000 1252"><g transform="matrix(1,0,0,1,-1.2121212121212466,-2.01935483870966)"><svg viewBox="0 0 396 248" data-background-color="#ffffff" preserveAspectRatio="xMidYMid meet" height="1252" width="2000" xmlns="http://www.w3.org/2000/svg" xmlns:xlink="http://www.w3.org/1999/xlink"><g id="tight-bounds" transform="matrix(1,0,0,1,0.2400000000000091,0.4000000000000057)"><svg viewBox="0 0 395.52 247.2" height="247.2" width="395.52"><g><svg></svg></g><g><svg viewBox="0 0 395.52 247.2" height="247.2" width="395.52"><g transform="matrix(1,0,0,1,75.54432,80.6146108563135)"><svg viewBox="0 0 244.43135999999998 85.970778287373" height="85.970778287373" width="244.43135999999998"><g><svg viewBox="0 0 244.43135999999998 85.970778287373" height="85.970778287373" width="244.43135999999998"><g><svg viewBox="0 0 244.43135999999998 85.970778287373" height="85.970778287373" width="244.43135999999998"><g><svg viewBox="0 0 244.43135999999998 85.970778287373" height="85.970778287373" width="244.43135999999998"><g id="textblocktransform"><svg viewBox="0 0 244.43135999999998 85.970778287373" height="85.970778287373" width="244.43135999999998" id="textblock"><g><svg viewBox="0 0 244.43135999999998 85.970778287373" height="85.970778287373" width="244.43135999999998"><g transform="matrix(1,0,0,1,0,0)"><svg width="244.43135999999998" viewBox="2.86 -35.5 100.92 35.5" height="85.970778287373" data-palette-color="#3d3839"><path d="M9.84-13.99L23.85-13.99 23.85-21Q23.85-22.44 23.3-23.72 22.75-25 21.8-25.95 20.85-26.9 19.57-27.45 18.29-28 16.85-28L16.85-28Q15.41-28 14.12-27.45 12.84-26.9 11.89-25.95 10.94-25 10.39-23.72 9.84-22.44 9.84-21L9.84-21 9.84-13.99ZM30.86-21L30.86 0 23.85 0 23.85-7.01 9.84-7.01 9.84 0 2.86 0 2.86-21Q2.86-23.9 3.96-26.45 5.05-29 6.95-30.91 8.84-32.81 11.39-33.91 13.94-35.01 16.85-35.01L16.85-35.01Q19.75-35.01 22.3-33.91 24.85-32.81 26.76-30.91 28.66-29 29.76-26.45 30.86-23.9 30.86-21L30.86-21ZM50.95-28L43.94-28 43.94-13.99 50.95-13.99Q52.39-13.99 53.66-14.54 54.93-15.09 55.88-16.04 56.83-16.99 57.38-18.27 57.93-19.56 57.93-21L57.93-21Q57.93-22.44 57.38-23.72 56.83-25 55.88-25.95 54.93-26.9 53.66-27.45 52.39-28 50.95-28L50.95-28ZM43.94-7.01L43.94 0 36.94 0 36.94-35.01 50.95-35.01Q52.88-35.01 54.66-34.51 56.44-34.01 57.99-33.09 59.54-32.18 60.83-30.9 62.11-29.61 63.02-28.05 63.94-26.49 64.44-24.71 64.94-22.92 64.94-21L64.94-21Q64.94-18.12 63.84-15.56 62.74-13.01 60.84-11.11 58.93-9.2 56.38-8.11 53.83-7.01 50.95-7.01L50.95-7.01 43.94-7.01ZM103.78-25L103.78 0 96.8 0 96.8-25Q96.8-25.73 96.52-26.37 96.24-27 95.76-27.48 95.28-27.95 94.65-28.22 94.01-28.49 93.28-28.49L93.28-28.49Q92.55-28.49 91.91-28.22 91.28-27.95 90.8-27.48 90.33-27 90.06-26.37 89.79-25.73 89.79-25L89.79-25 89.79 0 82.78 0 82.78-25Q82.78-25.73 82.51-26.37 82.25-27 81.77-27.48 81.29-27.95 80.66-28.22 80.02-28.49 79.29-28.49L79.29-28.49Q78.56-28.49 77.92-28.22 77.29-27.95 76.81-27.48 76.34-27 76.07-26.37 75.8-25.73 75.8-25L75.8-25 75.8 0 68.79 0 68.79-25Q68.79-27.17 69.61-29.09 70.43-31.01 71.86-32.43 73.29-33.86 75.2-34.68 77.12-35.5 79.29-35.5L79.29-35.5Q81.25-35.5 83.05-34.8 84.86-34.11 86.3-32.79L86.3-32.79Q87.74-34.11 89.53-34.8 91.33-35.5 93.28-35.5L93.28-35.5Q95.45-35.5 97.37-34.68 99.29-33.86 100.72-32.43 102.14-31.01 102.96-29.09 103.78-27.17 103.78-25L103.78-25Z" opacity="1" transform="matrix(1,0,0,1,0,0)" fill="#ffffff" class="wordmark-text-0" data-fill-palette-color="primary" id="text-0"></path></svg></g></svg></g></svg></g></svg></g></svg></g></svg></g></svg></g><path d="M216.916 74.615L216.916 20.576 10.868 20.576 10.868 226.624 216.916 226.624 216.916 172.585 209.163 172.585 209.163 218.871 18.621 218.871 18.621 28.329 209.163 28.329 209.163 74.615Z" fill="#ffffff" stroke="transparent" data-fill-palette-color="tertiary"></path></svg></g><defs></defs></svg><rect width="395.52" height="247.2" fill="none" stroke="none" visibility="hidden"></rect></g></svg></g></svg>