<?xml version="1.0" encoding="UTF-8" standalone="no"?>
<!-- Created with Inkscape (http://www.inkscape.org/) -->

<svg
   width="428.54831mm"
   height="275.22226mm"
   viewBox="0 0 428.54831 275.22226"
   version="1.1"
   id="svg1"
   inkscape:version="1.3.2 (091e20ef0f, 2023-11-25)"
   sodipodi:docname="apm_logo_black_horizontal.svg"
   xmlns:inkscape="http://www.inkscape.org/namespaces/inkscape"
   xmlns:sodipodi="http://sodipodi.sourceforge.net/DTD/sodipodi-0.dtd"
   xmlns="http://www.w3.org/2000/svg"
   xmlns:svg="http://www.w3.org/2000/svg">
  <sodipodi:namedview
     id="namedview1"
     pagecolor="#ffffff"
     bordercolor="#666666"
     borderopacity="1.0"
     inkscape:showpageshadow="2"
     inkscape:pageopacity="0.0"
     inkscape:pagecheckerboard="0"
     inkscape:deskcolor="#d1d1d1"
     inkscape:document-units="mm"
     showgrid="false"
     inkscape:zoom="0.46502525"
     inkscape:cx="1019.2995"
     inkscape:cy="505.3489"
     inkscape:window-width="1366"
     inkscape:window-height="715"
     inkscape:window-x="0"
     inkscape:window-y="27"
     inkscape:window-maximized="1"
     inkscape:current-layer="layer1" />
  <defs
     id="defs1" />
  <g
     inkscape:label="Capa 1"
     inkscape:groupmode="layer"
     id="layer1"
     transform="translate(32.279167,-10.847918)">
    <path
       d="M 242.94308,83.028843 V 10.847918 H -32.279167 V 286.07017 H 242.94308 v -72.18093 h -10.35583 v 61.8251 H -21.923337 V 21.203748 H 232.58725 v 61.825095 z"
       fill="#000000"
       stroke="transparent"
       data-fill-palette-color="tertiary"
       id="path7"
       style="stroke-width:1.33572" />
    <path
       d="m 92.398898,160.59565 h 45.318522 v -22.67544 q 0,-4.658 -1.7791,-8.79845 -1.7791,-4.14045 -4.85209,-7.21345 -3.07299,-3.07299 -7.21344,-4.85209 -4.14045,-1.7791 -8.79846,-1.7791 v 0 q -4.658,0 -8.8308,1.7791 -4.14045,1.7791 -7.213442,4.85209 -3.072991,3.073 -4.85209,7.21345 -1.7791,4.14045 -1.7791,8.79845 v 0 z m 67.993962,-22.67544 v 67.92927 H 137.71742 V 183.17404 H 92.398898 v 22.67544 H 69.820503 v -67.92927 q 0,-9.38071 3.5582,-17.62926 3.525852,-8.24855 9.671834,-14.42688 6.113634,-6.145983 14.362188,-9.704183 8.248555,-3.558199 17.661605,-3.558199 v 0 q 9.38071,0 17.62927,3.558199 8.24855,3.5582 14.42688,9.704183 6.14598,6.17833 9.70418,14.42688 3.5582,8.24855 3.5582,17.62926 z m 64.98566,-22.64309 h -22.67543 v 45.31853 h 22.67543 q 4.65801,0 8.76611,-1.7791 4.10811,-1.7791 7.1811,-4.85209 3.07299,-3.07299 4.85209,-7.21344 1.7791,-4.1728 1.7791,-8.83081 v 0 q 0,-4.658 -1.7791,-8.79845 -1.7791,-4.14045 -4.85209,-7.21345 -3.07299,-3.07299 -7.1811,-4.85209 -4.1081,-1.7791 -8.76611,-1.7791 z m -22.67543,67.89692 v 22.67544 H 180.06 V 92.601688 h 45.31852 q 6.24302,0 12.00084,1.617363 5.75781,1.617364 10.77164,4.593313 5.01383,2.943606 9.18662,7.084056 4.14045,4.17279 7.08406,9.21897 2.97595,5.04617 4.59331,10.80399 1.61736,5.79016 1.61736,12.00083 v 0 q 0,9.31602 -3.5582,17.59692 -3.5582,8.24855 -9.70418,14.39453 -6.17833,6.17833 -14.42688,9.70418 -8.24855,3.5582 -17.56457,3.5582 v 0 z m 193.56606,-58.19273 v 80.86817 h -22.5784 v -80.86817 q 0,-2.36136 -0.90572,-4.43158 -0.90572,-2.03788 -2.45839,-3.59055 -1.55267,-1.52032 -3.59055,-2.3937 -2.07022,-0.87337 -4.43157,-0.87337 v 0 q -2.36136,0 -4.43158,0.87337 -2.03788,0.87338 -3.59055,2.3937 -1.52032,1.55267 -2.3937,3.59055 -0.87337,2.07022 -0.87337,4.43158 v 0 80.86817 h -22.67544 v -80.86817 q 0,-2.36136 -0.87337,-4.43158 -0.84103,-2.03788 -2.3937,-3.59055 -1.55267,-1.52032 -3.59055,-2.3937 -2.07022,-0.87337 -4.43158,-0.87337 v 0 q -2.36135,0 -4.43157,0.87337 -2.03788,0.87338 -3.59055,2.3937 -1.52032,1.55267 -2.3937,3.59055 -0.87337,2.07022 -0.87337,4.43158 v 0 80.86817 h -22.67544 v -80.86817 q 0,-7.01936 2.65248,-13.23004 2.65247,-6.21067 7.27813,-10.80399 4.62566,-4.625656 10.80399,-7.278132 6.21068,-2.652477 13.23003,-2.652477 v 0 q 6.34007,0 12.16258,2.264309 5.85485,2.231962 10.51286,6.501802 v 0 q 4.65801,-4.26984 10.44817,-6.501802 5.82251,-2.264309 12.13023,-2.264309 v 0 q 7.01935,0 13.23003,2.652477 6.21067,2.652476 10.83633,7.278132 4.59332,4.59332 7.24579,10.80399 2.65248,6.21068 2.65248,13.23004 z"
       opacity="1"
       fill="#000000"
       class="wordmark-text-0"
       data-fill-palette-color="primary"
       id="text-0"
       style="stroke-width:3.23473" />
  </g>
</svg>
