<?xml version="1.0" encoding="UTF-8" standalone="no"?>
<!-- Created with Inkscape (http://www.inkscape.org/) -->

<svg
   width="380.30542mm"
   height="282.177mm"
   viewBox="0 0 380.30543 282.177"
   version="1.1"
   id="svg1"
   inkscape:version="1.3.2 (091e20ef0f, 2023-11-25)"
   sodipodi:docname="apm_logo_black_vertical.svg"
   xmlns:inkscape="http://www.inkscape.org/namespaces/inkscape"
   xmlns:sodipodi="http://sodipodi.sourceforge.net/DTD/sodipodi-0.dtd"
   xmlns="http://www.w3.org/2000/svg"
   xmlns:svg="http://www.w3.org/2000/svg">
  <sodipodi:namedview
     id="namedview1"
     pagecolor="#ffffff"
     bordercolor="#666666"
     borderopacity="1.0"
     inkscape:showpageshadow="2"
     inkscape:pageopacity="0.0"
     inkscape:pagecheckerboard="0"
     inkscape:deskcolor="#d1d1d1"
     inkscape:document-units="mm"
     inkscape:zoom="0.45"
     inkscape:cx="860"
     inkscape:cy="548.88889"
     inkscape:window-width="1366"
     inkscape:window-height="715"
     inkscape:window-x="0"
     inkscape:window-y="27"
     inkscape:window-maximized="1"
     inkscape:current-layer="layer1" />
  <defs
     id="defs1" />
  <g
     inkscape:label="Capa 1"
     inkscape:groupmode="layer"
     id="layer1"
     transform="translate(107.16234,-7.6286374)">
    <g
       id="g13"
       style="fill:#000000"
       transform="matrix(1.07635,0,0,1.07635,-332.86437,-474.1724)">
      <rect
         style="fill:#000000;fill-opacity:1;stroke-linejoin:round;stroke-miterlimit:19.6"
         id="rect9"
         width="200.36925"
         height="10.147796"
         x="209.69205"
         y="447.62488" />
      <rect
         style="fill:#000000;fill-opacity:1;stroke-width:1.14385;stroke-linejoin:round;stroke-miterlimit:19.6"
         id="rect10"
         width="262.16098"
         height="10.147796"
         x="-709.78589"
         y="209.69205"
         transform="rotate(-90)" />
      <rect
         style="fill:#000000;fill-opacity:1;stroke-linejoin:round;stroke-miterlimit:19.6"
         id="rect11"
         width="200.36925"
         height="10.147796"
         x="209.69205"
         y="699.63806" />
      <rect
         style="fill:#000000;fill-opacity:1;stroke-width:0.585784;stroke-linejoin:round;stroke-miterlimit:19.6"
         id="rect12"
         width="68.755424"
         height="10.147796"
         x="447.62488"
         y="-411.13364"
         transform="rotate(90)" />
      <rect
         style="fill:#000000;fill-opacity:1;stroke-width:0.585784;stroke-linejoin:round;stroke-miterlimit:19.6"
         id="rect13"
         width="68.755424"
         height="10.147796"
         x="641.03046"
         y="-411.13364"
         transform="rotate(90)" />
    </g>
    <path
       d="m 194.50888,33.902436 h -26.2737 v 52.510161 h 26.2737 c 3.59815,0 6.98391,-0.687162 10.1573,-2.061428 3.17332,-1.374296 5.94681,-3.248341 8.32063,-5.622075 2.37378,-2.37378 4.2478,-5.15981 5.62207,-8.358145 1.37429,-3.22332 2.06142,-6.634055 2.06142,-10.23216 v 0 c 0,-3.598151 -0.68713,-6.99638 -2.06142,-10.194714 -1.37427,-3.19829 -3.24829,-5.984368 -5.62207,-8.358149 -2.37382,-2.373732 -5.14731,-4.247741 -8.32063,-5.622024 -3.17339,-1.374324 -6.55915,-2.061466 -10.1573,-2.061466 z m -26.2737,78.671504 v 26.27378 H 141.99883 V 7.628648 h 52.51005 c 4.82249,0 9.45759,0.6246957 13.90529,1.8740495 4.44766,1.2493085 8.60799,3.0234055 12.48102,5.3222065 3.87295,2.273819 7.42105,5.009897 10.64438,8.208234 3.19838,3.223314 5.93445,6.783953 8.20827,10.68192 2.29877,3.897967 4.07289,8.070775 5.32222,12.518457 1.24932,4.472679 1.87403,9.107783 1.87403,13.905274 v 0 c 0,7.196233 -1.37426,13.992716 -4.12284,20.389342 -2.7487,6.371699 -6.49674,11.931313 -11.24421,16.678827 -4.77253,4.772512 -10.34453,8.520532 -16.71621,11.244122 -6.37179,2.74857 -13.1557,4.12286 -20.35195,4.12286 v 0 z"
       opacity="1"
       fill="#000000"
       class="wordmark-text-0"
       data-fill-palette-color="primary"
       id="path2"
       style="display:inline;stroke-width:3.74804"
       sodipodi:nodetypes="sccssscssssssccccssccccsscscscc" />
    <path
       d="m 273.14308,196.10449 v 93.70114 h -26.16144 v -93.70114 c 0,-1.82407 -0.34985,-3.53567 -1.04943,-5.13481 -0.69965,-1.57418 -1.6491,-2.96098 -2.84845,-4.16035 -1.1994,-1.17436 -2.58616,-2.0989 -4.16033,-2.77355 -1.59911,-0.67466 -3.31071,-1.01197 -5.13483,-1.01197 v 0 c -1.82408,0 -3.53569,0.33725 -5.13482,1.01197 -1.57415,0.67465 -2.96092,1.59919 -4.1603,2.77355 -1.17446,1.19937 -2.09907,2.58617 -2.77373,4.16035 -0.67465,1.59914 -1.01197,3.31074 -1.01197,5.13481 v 0 93.70114 h -26.27372 v -93.70114 c 0,-1.82407 -0.33723,-3.53567 -1.01197,-5.13481 -0.64969,-1.57418 -1.57415,-2.96098 -2.77355,-4.16035 -1.19936,-1.17436 -2.58624,-2.0989 -4.16039,-2.77355 -1.59913,-0.67466 -3.31074,-1.01197 -5.13476,-1.01197 v 0 c -1.82404,0 -3.53569,0.33725 -5.13483,1.01197 -1.57415,0.67465 -2.96102,1.59919 -4.16039,2.77355 -1.17441,1.19937 -2.0989,2.58617 -2.77355,4.16035 -0.67466,1.59914 -1.01197,3.31074 -1.01197,5.13481 v 0 93.70114 h -26.27382 v -93.70114 c 0,-5.42218 1.02447,-10.53203 3.07341,-15.32952 2.04895,-4.79747 4.85992,-8.97032 8.43309,-12.51848 3.57319,-3.57312 7.74607,-6.38419 12.51852,-8.43307 4.79749,-2.04898 9.90735,-3.07343 15.32954,-3.07343 v 0 c 4.89742,0 9.59493,0.87455 14.09266,2.62363 4.52261,1.72413 8.58295,4.23534 12.18105,7.53356 v 0 c 3.59815,-3.29822 7.6336,-5.80943 12.10624,-7.53356 4.49766,-1.74908 9.18262,-2.62363 14.05516,-2.62363 v 0 c 5.4221,0 10.53197,1.02445 15.32952,3.07343 4.79749,2.04888 8.98273,4.85995 12.55592,8.43307 3.54819,3.54816 6.34671,7.72101 8.39564,12.51848 2.04894,4.79749 3.07341,9.90734 3.0735,15.32952 z"
       opacity="1"
       fill="#000000"
       class="wordmark-text-0"
       data-fill-palette-color="primary"
       id="path3"
       style="display:inline;stroke-width:3.74804"
       sodipodi:nodetypes="sccscccsscccscccscccsscccscccssccsscsscssssss" />
    <path
       d="m 12.331918,159.38627 h 52.510164 v -26.27381 c 0,-3.59815 -0.687143,-6.99632 -2.061427,-10.19466 -1.374282,-3.19833 -3.248317,-5.98437 -5.622097,-8.35815 -2.373784,-2.37378 -5.15981,-4.24779 -8.358182,-5.62206 -3.198267,-1.37429 -6.596518,-2.06143 -10.194648,-2.06143 v 0 c -3.598128,0 -7.008868,0.68714 -10.232104,2.06143 -3.198376,1.37427 -5.984398,3.24828 -8.358182,5.62206 -2.373781,2.37378 -4.247814,5.15982 -5.622097,8.35815 -1.374286,3.19834 -2.061427,6.59651 -2.061427,10.19466 v 0 z m 78.783976,-26.27381 v 78.70898 H 64.842082 V 185.54765 H 12.331918 v 26.27379 h -26.161333 v -78.70898 c 0,-7.2462 1.374284,-14.05517 4.1228515,-20.42682 2.7235964,-6.3717 6.4590669,-11.9438 11.2066316,-16.716303 C 6.2226617,91.221809 11.769742,87.473779 18.141411,84.725217 24.51308,81.976611 31.334553,80.60233 38.605728,80.60233 v 0 c 7.246203,0 14.055192,1.374281 20.426861,4.122887 6.371669,2.748562 11.943718,6.496592 16.716256,11.24412 4.747564,4.772503 8.49563,10.344603 11.244196,16.716303 2.748568,6.37165 4.122853,13.18062 4.122853,20.42682 z"
       opacity="1"
       fill="#000000"
       class="wordmark-text-0"
       data-fill-palette-color="primary"
       id="path8"
       style="display:inline;stroke-width:3.74804"
       sodipodi:nodetypes="ccsssssscsssccsccccccscssssscss" />
  </g>
</svg>
