<?xml version="1.0" encoding="UTF-8" standalone="no"?>
<!-- Created with Inkscape (http://www.inkscape.org/) -->

<svg
   width="500"
   height="500"
   viewBox="0 0 132.29166 132.29167"
   version="1.1"
   id="svg1"
   inkscape:version="1.3.2 (091e20ef0f, 2023-11-25)"
   sodipodi:docname="favicon.svg"
   xmlns:inkscape="http://www.inkscape.org/namespaces/inkscape"
   xmlns:sodipodi="http://sodipodi.sourceforge.net/DTD/sodipodi-0.dtd"
   xmlns="http://www.w3.org/2000/svg"
   xmlns:svg="http://www.w3.org/2000/svg">
  <sodipodi:namedview
     id="namedview1"
     pagecolor="#ffffff"
     bordercolor="#666666"
     borderopacity="1.0"
     inkscape:showpageshadow="2"
     inkscape:pageopacity="0.0"
     inkscape:pagecheckerboard="0"
     inkscape:deskcolor="#d1d1d1"
     inkscape:document-units="px"
     showgrid="false"
     inkscape:zoom="0.96568915"
     inkscape:cx="282.69967"
     inkscape:cy="245.42059"
     inkscape:window-width="1366"
     inkscape:window-height="715"
     inkscape:window-x="0"
     inkscape:window-y="27"
     inkscape:window-maximized="1"
     inkscape:current-layer="layer1" />
  <defs
     id="defs1" />
  <g
     inkscape:label="Capa 1"
     inkscape:groupmode="layer"
     id="layer1">
    <rect
       style="fill:#ffffff;stroke-width:0.264583;stroke-linejoin:round;stroke-miterlimit:19.6"
       id="rect1"
       width="132.29167"
       height="132.29167"
       x="0"
       y="0" />
    <g
       id="g1"
       transform="translate(-0.755405,5.2638725)">
      <path
         d="M 85.500877,40.914511 V 18.88693 H 1.510815 v 83.99006 H 85.500877 V 80.849411 H 82.340571 V 99.716692 H 4.671122 V 22.047237 h 77.669449 v 18.867274 z"
         fill="#000000"
         stroke="transparent"
         data-fill-palette-color="tertiary"
         id="path7"
         style="stroke-width:0.407624" />
      <path
         d="m 39.559042,64.585711 h 13.829934 v -6.919904 q 0,-1.42149 -0.542932,-2.685039 -0.542931,-1.263548 -1.48072,-2.201341 -0.93779,-0.93779 -2.201339,-1.480721 -1.263548,-0.542931 -2.68504,-0.542931 v 0 q -1.421491,0 -2.694912,0.542931 -1.263549,0.542931 -2.201339,1.480721 -0.93779,0.937793 -1.480721,2.201341 -0.542931,1.263549 -0.542931,2.685039 v 0 z M 60.30888,57.665807 V 78.395904 H 53.388976 V 71.475998 H 39.559042 v 6.919906 H 32.668753 V 57.665807 q 0,-2.862728 1.085862,-5.379953 1.075991,-2.517224 2.951572,-4.402676 1.865708,-1.875581 4.382933,-2.961443 2.517226,-1.085862 5.389825,-1.085862 v 0 q 2.862727,0 5.379954,1.085862 2.517225,1.085862 4.402677,2.961443 1.875579,1.885452 2.961442,4.402676 1.085862,2.517225 1.085862,5.379953 z m 19.831789,-6.910032 h -6.919901 v 13.829936 h 6.919901 q 1.421493,0 2.675169,-0.542931 1.253679,-0.542931 2.191469,-1.480721 0.93779,-0.93779 1.480721,-2.201338 0.542931,-1.273421 0.542931,-2.694914 v 0 q 0,-1.42149 -0.542931,-2.685039 -0.542931,-1.263548 -1.480721,-2.201341 -0.93779,-0.93779 -2.191469,-1.480721 -1.253676,-0.542931 -2.675169,-0.542931 z m -6.919901,20.720223 v 6.919906 H 66.310736 V 43.835873 h 13.829933 q 1.905193,0 3.662317,0.493574 1.757121,0.493573 3.287201,1.401749 1.530079,0.898306 2.803497,2.161854 1.263548,1.273418 2.161855,2.813369 0.908176,1.539949 1.401749,3.297073 0.493572,1.766994 0.493572,3.662315 v 0 q 0,2.842986 -1.085862,5.370084 -1.085862,2.517224 -2.961442,4.392803 -1.885452,1.885452 -4.402676,2.961442 -2.517225,1.085862 -5.360211,1.085862 v 0 z M 132.29166,53.71722 v 24.678684 h -6.89029 V 53.71722 q 0,-0.720621 -0.2764,-1.352393 -0.2764,-0.621904 -0.75023,-1.095735 -0.47383,-0.463959 -1.09573,-0.73049 -0.63177,-0.266527 -1.35239,-0.266527 v 0 q -0.72062,0 -1.35239,0.266527 -0.62191,0.266531 -1.09574,0.73049 -0.46396,0.473831 -0.73049,1.095735 -0.26653,0.631772 -0.26653,1.352393 v 0 24.678684 h -6.9199 V 53.71722 q 0,-0.720621 -0.26653,-1.352393 -0.25666,-0.621904 -0.73049,-1.095735 -0.47383,-0.463959 -1.09573,-0.73049 -0.63178,-0.266527 -1.3524,-0.266527 v 0 q -0.72061,0 -1.35239,0.266527 -0.6219,0.266531 -1.09573,0.73049 -0.46396,0.473831 -0.73049,1.095735 -0.26653,0.631772 -0.26653,1.352393 v 0 24.678684 H 97.751378 V 53.71722 q 0,-2.142111 0.809462,-4.037435 0.809458,-1.89532 2.22108,-3.297073 1.41162,-1.411619 3.29707,-2.22108 1.89533,-0.809461 4.03743,-0.809461 v 0 q 1.93481,0 3.71168,0.691003 1.78674,0.681132 3.20823,1.984166 v 0 q 1.42149,-1.303034 3.18848,-1.984166 1.77687,-0.691003 3.70181,-0.691003 v 0 q 2.14211,0 4.03743,0.809461 1.89532,0.809461 3.30694,2.22108 1.40175,1.401753 2.21121,3.297073 0.80946,1.895324 0.80946,4.037435 z"
         opacity="1"
         fill="#000000"
         class="wordmark-text-0"
         data-fill-palette-color="primary"
         id="text-0"
         style="stroke-width:0.987152" />
    </g>
  </g>
</svg>
